<?xml version="1.0" encoding="UTF-8"?><svg id="Logo_FC" xmlns="http://www.w3.org/2000/svg" viewBox="0 0 524.14 175.65"><defs><style>.cls-1{fill:#1f519b;}.cls-2{fill:#1d1d1b;}.cls-3{fill:#3d78bc;}</style></defs><g id="Pijltje"><path class="cls-1" d="m4.15,110.04s20.88-46.6,27.96-54.8c7.08-8.2,19.76-10.81,38.4-10.81s28.57.14,34.02,5.59c5.46,5.46,40.21,40.69,52.67,53.21v6.81m-153.05,0s20.88,46.6,27.96,54.8c7.08,8.2,19.76,10.81,38.4,10.81s28.57-.14,34.02-5.59,40.21-40.69,52.67-53.21v-6.81"/><path class="cls-2" d="m432.6,110.04c.19,10.56-11.67,10.6-11.67,10.6h-90.48c.51-2.38,2.01-7.76,2.01-10.6s-1.5-8.22-2.01-10.6h90.48s11.86.04,11.67,10.6Z"/><path id="Punt" class="cls-2" d="m524.14,110.04s-7.61,2.63-14.1,2.63h-77.69v-5.26h77.69c6.49,0,14.1,2.63,14.1,2.63Z"/><path class="cls-2" d="m290.81,110.04c0,3.08-2.01,10.6-2.01,10.6h-14.41c.51-2.38,2.01-7.76,2.01-10.6s-1.5-8.22-2.01-10.6h14.41s2.01,7.68,2.01,10.6Z"/><path class="cls-2" d="m309.56,110.04c0,3.08-2.01,10.6-2.01,10.6h-14.41c.51-2.38,2.01-7.76,2.01-10.6s-1.5-8.22-2.01-10.6h14.41s2.01,7.68,2.01,10.6Z"/><path class="cls-2" d="m328.32,110.04c0,3.08-2.01,10.6-2.01,10.6h-14.41c.51-2.38,2.01-7.76,2.01-10.6s-1.5-8.22-2.01-10.6h14.41s2.01,7.68,2.01,10.6Z"/><path class="cls-3" d="m158.85,109.17v-1.91c-12.83-3.48-48.61-13.27-54.22-14.78-5.62-1.51-15.84-1.52-35.03-1.46-19.19.06-32.24.83-39.53,3.15,0,0-24.64,7.28-28.89,12-2.11,2.35-1.05,11.27.5,14.1,3.19,5.82,14.76,8.23,33.95,8.17,19.19-.06,58.85,1.03,64.58,0l58.64-19.28Z"/><path class="cls-2" d="m363.75,102.07l-248.23,1.4c-.17,0-.73.02-1.33.05-.01,0-.02,0-.03,0-1.67.11-3.93,1.6-3.93,3.28v3.24c16.21-.01,46.12-.04,46.12-.04l-20.48,6.73,227.88,1.28c1.83.01,3.31-1.47,3.31-3.3v-9.35c0-1.83-1.49-3.31-3.31-3.3Z"/></g><g id="DFK"><path class="cls-2" d="m196.14,0c28.6,0,48.36,18.46,48.36,45.5s-20.02,45.5-49.27,45.5h-38.22V0h39.13Zm-15.99,72.54h16.51c14.17,0,24.31-10.92,24.31-26.91s-10.66-27.17-25.35-27.17h-15.47v54.08Z"/><path class="cls-2" d="m279.86,18.2v21.06h40.82v18.2h-40.82v33.54h-23.14V0h67.47v18.2h-44.33Z"/><path class="cls-2" d="m370.47,55.25l-12.09,13.39v22.36h-23.14V0h23.14v39.39L393.22,0h26.78l-33.8,37.7,36.01,53.3h-27.69l-24.05-35.75Z"/></g></svg>