<?xml version="1.0" encoding="UTF-8"?><svg id="Logo_ZWART" xmlns="http://www.w3.org/2000/svg" viewBox="0 0 524.14 175.65"><defs><style>.cls-1{fill:#1d1d1b;}</style></defs><path class="cls-1" d="m432.6,110.04c.19,10.56-11.67,10.6-11.67,10.6h-90.48c.51-2.38,2.01-7.76,2.01-10.6s-1.5-8.22-2.01-10.6h90.48s11.86.04,11.67,10.6Z"/><path id="Punt" class="cls-1" d="m524.14,110.04s-7.61,2.63-14.1,2.63h-77.69v-5.26h77.69c6.49,0,14.1,2.63,14.1,2.63Z"/><path class="cls-1" d="m290.81,110.04c0,3.08-2.01,10.6-2.01,10.6h-14.41c.51-2.38,2.01-7.76,2.01-10.6s-1.5-8.22-2.01-10.6h14.41s2.01,7.68,2.01,10.6Z"/><path class="cls-1" d="m309.56,110.04c0,3.08-2.01,10.6-2.01,10.6h-14.41c.51-2.38,2.01-7.76,2.01-10.6s-1.5-8.22-2.01-10.6h14.41s2.01,7.68,2.01,10.6Z"/><path class="cls-1" d="m328.32,110.04c0,3.08-2.01,10.6-2.01,10.6h-14.41c.51-2.38,2.01-7.76,2.01-10.6s-1.5-8.22-2.01-10.6h14.41s2.01,7.68,2.01,10.6Z"/><path class="cls-1" d="m139.74,115.46l10.82-4c-6.54,0-16.2,0-25.25,0-5.54,0-16.5,0-16.5,0v-4.65c0-2.46,2.83-4.54,5.26-4.69h.12c.55-.04,1.15-.06,1.33-.06l23.71-.13c-14.55-3.97-30.94-8.45-34.59-9.43-5.62-1.51-15.84-1.52-35.03-1.46-19.19.06-32.24.83-39.53,3.15,0,0-24.64,7.28-28.89,12-2.11,2.35-1.05,11.27.5,14.1,3.19,5.82,14.76,8.23,33.95,8.17,19.19-.06,58.85,1.03,64.58,0l35.54-11.69.89-.3,3.1-1.01h0Z"/><path class="cls-1" d="m155.74,101.77c-13.46-13.55-45.95-46.48-51.22-51.75s-15.38-5.59-34.02-5.59-31.31,2.61-38.4,10.81c-5.01,5.81-16.94,30.86-23.47,45,8.25-3.6,19.3-6.91,21.04-7.43,6.86-2.18,18.8-3.15,39.93-3.21,3.06-.01,5.9-.02,8.52-.02,14.36,0,22.05.23,26.88,1.53,2.72.74,12.54,3.42,23.4,6.39l15.99,4.36,11.34-.09Z"/><path class="cls-1" d="m135.92,118.21l-35.36,11.63-.1.02c-1.78.31-6.43.46-14.65.46-7.31,0-16.47-.12-25.32-.23-8.68-.11-16.89-.21-23.31-.21h-2.22c-9.5,0-16.96-.63-22.55-1.92,6.64,14.08,15.54,32.08,19.69,36.89,7.09,8.2,19.76,10.81,38.4,10.81s28.57-.14,34.02-5.59c5.27-5.27,37.76-38.21,51.24-51.77l-19.84-.08Z"/><path class="cls-1" d="m363.75,102.07l-248.23,1.4c-.17,0-.73.02-1.33.05-.01,0-.02,0-.03,0-1.67.11-3.93,1.6-3.93,3.28v3.24c16.21-.01,48.25,0,48.25,0l-18.24,6.75,223.51,1.22c1.83.01,3.31-1.47,3.31-3.3v-9.35c0-1.83-1.49-3.31-3.31-3.3Z"/><g id="DFK"><path class="cls-1" d="m196.14,0c28.6,0,48.36,18.46,48.36,45.5s-20.02,45.5-49.27,45.5h-38.22V0h39.13Zm-15.99,72.54h16.51c14.17,0,24.31-10.92,24.31-26.91s-10.66-27.17-25.35-27.17h-15.47v54.08Z"/><path class="cls-1" d="m279.86,18.2v21.06h40.82v18.2h-40.82v33.54h-23.14V0h67.47v18.2h-44.33Z"/><path class="cls-1" d="m370.47,55.25l-12.09,13.39v22.36h-23.14V0h23.14v39.39L393.22,0h26.78l-33.8,37.7,36.01,53.3h-27.69l-24.05-35.75Z"/></g></svg>