<?xml version="1.0" encoding="utf-8"?>
<!-- Generator: Adobe Illustrator 27.4.1, SVG Export Plug-In . SVG Version: 6.00 Build 0)  -->
<svg version="1.1" id="Logo_WIT" xmlns="http://www.w3.org/2000/svg" xmlns:xlink="http://www.w3.org/1999/xlink" x="0px" y="0px"
	 viewBox="0 0 524.1 175.6" style="enable-background:new 0 0 524.1 175.6;" xml:space="preserve">
<style type="text/css">
	.st0{fill:#FFFFFF;}
</style>
<path class="st0" d="M432.6,110c0.2,10.6-11.7,10.6-11.7,10.6h-90.5c0.5-2.4,2-7.8,2-10.6s-1.5-8.2-2-10.6h90.5
	C420.9,99.4,432.8,99.5,432.6,110z"/>
<path id="Punt" class="st0" d="M524.1,110c0,0-7.6,2.6-14.1,2.6h-77.7v-5.3H510C516.5,107.4,524.1,110,524.1,110z"/>
<path class="st0" d="M290.8,110c0,3.1-2,10.6-2,10.6h-14.4c0.5-2.4,2-7.8,2-10.6s-1.5-8.2-2-10.6h14.4
	C288.8,99.4,290.8,107.1,290.8,110z"/>
<path class="st0" d="M309.6,110c0,3.1-2,10.6-2,10.6h-14.4c0.5-2.4,2-7.8,2-10.6s-1.5-8.2-2-10.6h14.4
	C307.5,99.4,309.6,107.1,309.6,110z"/>
<path class="st0" d="M328.3,110c0,3.1-2,10.6-2,10.6h-14.4c0.5-2.4,2-7.8,2-10.6s-1.5-8.2-2-10.6h14.4
	C326.3,99.4,328.3,107.1,328.3,110z"/>
<path class="st0" d="M139.7,115.5l10.8-4c-6.5,0-16.2,0-25.2,0c-5.5,0-16.5,0-16.5,0v-4.7c0-2.5,2.8-4.5,5.3-4.7h0.1
	c0.6,0,1.2-0.1,1.3-0.1l23.7-0.1c-14.6-4-30.9-8.4-34.6-9.4C99,91,88.8,91,69.6,91s-32.2,0.8-39.5,3.2c0,0-24.6,7.3-28.9,12
	c-2.1,2.3-1,11.3,0.5,14.1c3.2,5.8,14.8,8.2,34,8.2s58.9,1,64.6,0l35.5-11.7l0.9-0.3L139.7,115.5L139.7,115.5L139.7,115.5z"/>
<path class="st0" d="M155.7,101.8c-13.5-13.6-45.9-46.5-51.2-51.8c-5.4-5.5-15.4-5.6-34-5.6S39.2,47,32.1,55.2
	c-5,5.8-16.9,30.9-23.5,45c8.2-3.6,19.3-6.9,21-7.4c6.9-2.2,18.8-3.2,39.9-3.2c3.1,0,5.9,0,8.5,0c14.4,0,22.1,0.2,26.9,1.5
	c2.7,0.7,12.5,3.4,23.4,6.4l16,4.4L155.7,101.8L155.7,101.8z"/>
<path class="st0" d="M135.9,118.2l-35.4,11.6l-0.1,0c-1.8,0.3-6.4,0.5-14.7,0.5c-7.3,0-16.5-0.1-25.3-0.2
	c-8.7-0.1-16.9-0.2-23.3-0.2H35c-9.5,0-17-0.6-22.5-1.9C19,142,28,160,32.1,164.9c7.1,8.2,19.8,10.8,38.4,10.8s28.6-0.1,34-5.6
	c5.3-5.3,37.8-38.2,51.2-51.8L135.9,118.2L135.9,118.2z"/>
<path class="st0" d="M363.8,102.1l-248.2,1.4c-0.2,0-0.7,0-1.3,0.1c0,0,0,0,0,0c-1.7,0.1-3.9,1.6-3.9,3.3v3.2c16.2,0,48.3,0,48.3,0
	l-18.2,6.8l223.5,1.2c1.8,0,3.3-1.5,3.3-3.3v-9.3C367.1,103.5,365.6,102.1,363.8,102.1L363.8,102.1z"/>
<g id="DFK">
	<path class="st0" d="M196.1,0c28.6,0,48.4,18.5,48.4,45.5S224.5,91,195.2,91H157V0H196.1z M180.1,72.5h16.5
		c14.2,0,24.3-10.9,24.3-26.9s-10.7-27.2-25.4-27.2h-15.5L180.1,72.5L180.1,72.5z"/>
	<path class="st0" d="M279.9,18.2v21.1h40.8v18.2h-40.8V91h-23.1V0h67.5v18.2H279.9z"/>
	<path class="st0" d="M370.5,55.3l-12.1,13.4V91h-23.1V0h23.1v39.4L393.2,0H420l-33.8,37.7l36,53.3h-27.7L370.5,55.3L370.5,55.3z"/>
</g>
</svg>
